<svg width="31" height="30" viewBox="0 0 31 30" fill="none" xmlns="http://www.w3.org/2000/svg">
<path d="M15.5 18.6875C15.3333 18.6875 15.1771 18.6615 15.0312 18.6094C14.8854 18.5573 14.75 18.4688 14.625 18.3438L8.875 12.5938C8.64583 12.3646 8.53125 12.0729 8.53125 11.7188C8.53125 11.3646 8.64583 11.0729 8.875 10.8438C9.10417 10.6146 9.39583 10.5 9.75 10.5C10.1042 10.5 10.3958 10.6146 10.625 10.8438L15.5 15.7188L20.375 10.8437C20.6042 10.6146 20.8958 10.5 21.25 10.5C21.6042 10.5 21.8958 10.6146 22.125 10.8437C22.3542 11.0729 22.4688 11.3646 22.4688 11.7187C22.4688 12.0729 22.3542 12.3646 22.125 12.5937L16.375 18.3438C16.25 18.4688 16.1146 18.5573 15.9688 18.6094C15.8229 18.6615 15.6667 18.6875 15.5 18.6875Z" fill="#CFDBEA"/>
</svg>
