<svg width="24" height="24" viewBox="0 0 24 24" fill="none" xmlns="http://www.w3.org/2000/svg">
<path d="M8.99904 14.2752L4.84904 16.7752C4.66571 16.8919 4.47404 16.9419 4.27404 16.9252C4.07404 16.9085 3.89904 16.8419 3.74904 16.7252C3.59904 16.6085 3.48237 16.4627 3.39904 16.2877C3.31571 16.1127 3.29904 15.9169 3.34904 15.7002L4.44904 10.9752L0.774038 7.80019C0.607372 7.6502 0.503205 7.47936 0.461538 7.28769C0.419872 7.09603 0.432372 6.90853 0.499038 6.72519C0.565705 6.54186 0.665705 6.39186 0.799038 6.2752C0.932372 6.15853 1.11571 6.08353 1.34904 6.0502L6.19904 5.6252L8.07404 1.1752C8.15737 0.975195 8.28654 0.825195 8.46154 0.725195C8.63654 0.625195 8.81571 0.575195 8.99904 0.575195C9.18237 0.575195 9.36154 0.625195 9.53654 0.725195C9.71154 0.825195 9.84071 0.975195 9.92404 1.1752L11.799 5.6252L16.649 6.0502C16.8824 6.08353 17.0657 6.15853 17.199 6.2752C17.3324 6.39186 17.4324 6.54186 17.499 6.72519C17.5657 6.90853 17.5782 7.09603 17.5365 7.28769C17.4949 7.47936 17.3907 7.6502 17.224 7.80019L13.549 10.9752L14.649 15.7002C14.699 15.9169 14.6824 16.1127 14.599 16.2877C14.5157 16.4627 14.399 16.6085 14.249 16.7252C14.099 16.8419 13.924 16.9085 13.724 16.9252C13.524 16.9419 13.3324 16.8919 13.149 16.7752L8.99904 14.2752Z" fill="#CFDBEA"/>
</svg>
