<svg width="22" height="22" viewBox="0 0 22 22" fill="none" xmlns="http://www.w3.org/2000/svg">
<path d="M11 19.25C10.7403 19.25 10.5226 19.1622 10.3469 18.9865C10.1712 18.8108 10.0833 18.5931 10.0833 18.3333V14.6667C10.0833 14.4069 10.1712 14.1892 10.3469 14.0135C10.5226 13.8378 10.7403 13.75 11 13.75C11.2597 13.75 11.4774 13.8378 11.6531 14.0135C11.8288 14.1892 11.9167 14.4069 11.9167 14.6667V15.5833H18.3333C18.5931 15.5833 18.8108 15.6712 18.9865 15.8469C19.1622 16.0226 19.25 16.2403 19.25 16.5C19.25 16.7597 19.1622 16.9774 18.9865 17.1531C18.8108 17.3288 18.5931 17.4167 18.3333 17.4167H11.9167V18.3333C11.9167 18.5931 11.8288 18.8108 11.6531 18.9865C11.4774 19.1622 11.2597 19.25 11 19.25ZM3.66667 17.4167C3.40694 17.4167 3.18924 17.3288 3.01354 17.1531C2.83785 16.9774 2.75 16.7597 2.75 16.5C2.75 16.2403 2.83785 16.0226 3.01354 15.8469C3.18924 15.6712 3.40694 15.5833 3.66667 15.5833H7.33333C7.59306 15.5833 7.81076 15.6712 7.98646 15.8469C8.16215 16.0226 8.25 16.2403 8.25 16.5C8.25 16.7597 8.16215 16.9774 7.98646 17.1531C7.81076 17.3288 7.59306 17.4167 7.33333 17.4167H3.66667ZM7.33333 13.75C7.07361 13.75 6.8559 13.6622 6.68021 13.4865C6.50451 13.3108 6.41667 13.0931 6.41667 12.8333V11.9167H3.66667C3.40694 11.9167 3.18924 11.8288 3.01354 11.6531C2.83785 11.4774 2.75 11.2597 2.75 11C2.75 10.7403 2.83785 10.5226 3.01354 10.3469C3.18924 10.1712 3.40694 10.0833 3.66667 10.0833H6.41667V9.16667C6.41667 8.90694 6.50451 8.68924 6.68021 8.51354C6.8559 8.33785 7.07361 8.25 7.33333 8.25C7.59306 8.25 7.81076 8.33785 7.98646 8.51354C8.16215 8.68924 8.25 8.90694 8.25 9.16667V12.8333C8.25 13.0931 8.16215 13.3108 7.98646 13.4865C7.81076 13.6622 7.59306 13.75 7.33333 13.75ZM11 11.9167C10.7403 11.9167 10.5226 11.8288 10.3469 11.6531C10.1712 11.4774 10.0833 11.2597 10.0833 11C10.0833 10.7403 10.1712 10.5226 10.3469 10.3469C10.5226 10.1712 10.7403 10.0833 11 10.0833H18.3333C18.5931 10.0833 18.8108 10.1712 18.9865 10.3469C19.1622 10.5226 19.25 10.7403 19.25 11C19.25 11.2597 19.1622 11.4774 18.9865 11.6531C18.8108 11.8288 18.5931 11.9167 18.3333 11.9167H11ZM14.6667 8.25C14.4069 8.25 14.1892 8.16215 14.0135 7.98646C13.8378 7.81076 13.75 7.59306 13.75 7.33333V3.66667C13.75 3.40694 13.8378 3.18924 14.0135 3.01354C14.1892 2.83785 14.4069 2.75 14.6667 2.75C14.9264 2.75 15.1441 2.83785 15.3198 3.01354C15.4955 3.18924 15.5833 3.40694 15.5833 3.66667V4.58333H18.3333C18.5931 4.58333 18.8108 4.67118 18.9865 4.84687C19.1622 5.02257 19.25 5.24028 19.25 5.5C19.25 5.75972 19.1622 5.97743 18.9865 6.15313C18.8108 6.32882 18.5931 6.41667 18.3333 6.41667H15.5833V7.33333C15.5833 7.59306 15.4955 7.81076 15.3198 7.98646C15.1441 8.16215 14.9264 8.25 14.6667 8.25ZM3.66667 6.41667C3.40694 6.41667 3.18924 6.32882 3.01354 6.15313C2.83785 5.97743 2.75 5.75972 2.75 5.5C2.75 5.24028 2.83785 5.02257 3.01354 4.84687C3.18924 4.67118 3.40694 4.58333 3.66667 4.58333H11C11.2597 4.58333 11.4774 4.67118 11.6531 4.84687C11.8288 5.02257 11.9167 5.24028 11.9167 5.5C11.9167 5.75972 11.8288 5.97743 11.6531 6.15313C11.4774 6.32882 11.2597 6.41667 11 6.41667H3.66667Z" fill="#9FACBD"/>
</svg>
