<svg width="20" height="20" viewBox="0 0 20 20" fill="none" xmlns="http://www.w3.org/2000/svg">
<g clip-path="url(#clip0_14163_28053)">
<path d="M14.166 2.78357C15.4328 3.51498 16.4848 4.56697 17.2162 5.8338C17.9476 7.10064 18.3327 8.53769 18.3327 10.0005C18.3327 11.4633 17.9476 12.9004 17.2162 14.1672C16.4848 15.434 15.4328 16.486 14.1659 17.2174C12.8991 17.9488 11.462 18.3338 9.99922 18.3338C8.5364 18.3338 7.09937 17.9487 5.83254 17.2172C4.56572 16.4858 3.51376 15.4338 2.78238 14.167C2.051 12.9001 1.66598 11.4631 1.66602 10.0002L1.67018 9.73024C1.71685 8.29106 2.13564 6.88854 2.88572 5.6594C3.63579 4.43026 4.69156 3.41645 5.95009 2.7168C7.20862 2.01716 8.62697 1.65557 10.0669 1.66727C11.5067 1.67897 12.919 2.06357 14.166 2.78357ZM9.99935 12.5002C9.77833 12.5002 9.56637 12.588 9.41009 12.7443C9.25381 12.9006 9.16602 13.1126 9.16602 13.3336V13.3419C9.16602 13.5629 9.25381 13.7749 9.41009 13.9312C9.56637 14.0874 9.77833 14.1752 9.99935 14.1752C10.2204 14.1752 10.4323 14.0874 10.5886 13.9312C10.7449 13.7749 10.8327 13.5629 10.8327 13.3419V13.3336C10.8327 13.1126 10.7449 12.9006 10.5886 12.7443C10.4323 12.588 10.2204 12.5002 9.99935 12.5002ZM9.99935 6.6669C9.77833 6.6669 9.56637 6.7547 9.41009 6.91098C9.25381 7.06726 9.16602 7.27922 9.16602 7.50024V10.8336C9.16602 11.0546 9.25381 11.2665 9.41009 11.4228C9.56637 11.5791 9.77833 11.6669 9.99935 11.6669C10.2204 11.6669 10.4323 11.5791 10.5886 11.4228C10.7449 11.2665 10.8327 11.0546 10.8327 10.8336V7.50024C10.8327 7.27922 10.7449 7.06726 10.5886 6.91098C10.4323 6.7547 10.2204 6.6669 9.99935 6.6669Z" fill="#8642DB"/>
</g>
<defs>
<clipPath id="clip0_14163_28053">
<rect width="20" height="20" fill="white"/>
</clipPath>
</defs>
</svg>
