<svg width="118" height="47" viewBox="0 0 118 47" fill="none" xmlns="http://www.w3.org/2000/svg">
<path d="M13.8516 16.2891V20.625H9.86719V30.9766C9.86719 32.6562 10.6875 33.0859 11.8594 33.125C12.4453 33.125 13.4609 33.0859 14.1641 33.0078V37.5781C13.5391 37.6953 12.5234 37.7734 11.0781 37.7734C6.89844 37.7734 4.04688 35.8984 4.08594 31.7969V20.625H1.15625V16.2891H4.08594V11.2109H9.86719V16.2891H13.8516ZM16.4688 31.5625C16.4688 26.8359 20.2969 25.2734 24.3594 25.0391C25.8828 24.9414 28.7344 24.8047 29.6328 24.7656V23.0469C29.5938 21.2891 28.3828 20.2344 26.2344 20.2344C24.2812 20.2344 23.0312 21.1328 22.7188 22.5781H17.2109C17.5625 18.9062 20.7656 16.0156 26.3906 16.0156C31 16.0156 35.375 18.0859 35.375 23.2031V37.5H29.9062V34.5703H29.75C28.6953 36.5234 26.7031 37.8906 23.5391 37.8906C19.4766 37.8906 16.4688 35.7812 16.4688 31.5625ZM22.0156 31.4062C22.0156 33.0469 23.3438 33.9062 25.1797 33.9062C27.7969 33.9062 29.6719 32.1484 29.6328 29.9219V28.3594C28.7539 28.3984 26.293 28.5352 25.2969 28.6328C23.3047 28.8281 22.0156 29.7656 22.0156 31.4062ZM47.6016 37.8516C42.7578 37.8516 38.9688 33.9844 38.9688 26.9141C38.9688 19.6484 42.9141 16.0156 47.6016 16.0156C51.1562 16.0156 52.8359 18.125 53.6172 19.8438H53.8125V9.21875H59.5938V37.5H53.8906V34.1016H53.6172C52.7969 35.8594 51.0391 37.8516 47.6016 37.8516ZM49.3984 33.2422C52.2891 33.2422 53.9297 30.7031 53.9297 26.875C53.9297 23.0469 52.2891 20.625 49.3984 20.625C46.4688 20.625 44.9062 23.1641 44.9062 26.875C44.9062 30.625 46.4688 33.2422 49.3984 33.2422ZM63.2266 31.5625C63.2266 26.8359 67.0547 25.2734 71.1172 25.0391C72.6406 24.9414 75.4922 24.8047 76.3906 24.7656V23.0469C76.3516 21.2891 75.1406 20.2344 72.9922 20.2344C71.0391 20.2344 69.7891 21.1328 69.4766 22.5781H63.9688C64.3203 18.9062 67.5234 16.0156 73.1484 16.0156C77.7578 16.0156 82.1328 18.0859 82.1328 23.2031V37.5H76.6641V34.5703H76.5078C75.4531 36.5234 73.4609 37.8906 70.2969 37.8906C66.2344 37.8906 63.2266 35.7812 63.2266 31.5625ZM68.7734 31.4062C68.7734 33.0469 70.1016 33.9062 71.9375 33.9062C74.5547 33.9062 76.4297 32.1484 76.3906 29.9219V28.3594C75.5117 28.3984 73.0508 28.5352 72.0547 28.6328C70.0625 28.8281 68.7734 29.7656 68.7734 31.4062ZM86.5469 37.5V9.21875H92.3281V24.4141H92.6406L99.5156 16.2891H106.156L98.2656 25.4688L106.586 37.5H99.7891L93.9688 28.8672L92.3281 30.7031V37.5H86.5469Z" fill="url(#paint0_linear_13050_36924)"/>
<rect x="110" y="8.5" width="8" height="8" rx="2" fill="url(#paint1_linear_13050_36924)"/>
<defs>
<linearGradient id="paint0_linear_13050_36924" x1="0" y1="23.5" x2="107" y2="23.5" gradientUnits="userSpaceOnUse">
<stop stop-color="#8642DB"/>
<stop offset="1" stop-color="#DCA6FF"/>
</linearGradient>
<linearGradient id="paint1_linear_13050_36924" x1="110" y1="12.5" x2="118" y2="12.5" gradientUnits="userSpaceOnUse">
<stop stop-color="#8C4ADE"/>
<stop offset="1" stop-color="#D9A3FD"/>
</linearGradient>
</defs>
</svg>
