<svg width="12" height="12" viewBox="0 0 12 12" fill="none" xmlns="http://www.w3.org/2000/svg">
<path d="M6.00066 9.51712L3.23399 11.1838C3.11177 11.2616 2.98399 11.2949 2.85066 11.2838C2.71733 11.2727 2.60066 11.2282 2.50066 11.1505C2.40066 11.0727 2.32288 10.9755 2.26733 10.8588C2.21177 10.7421 2.20066 10.6116 2.23399 10.4671L2.96733 7.31712L0.517328 5.20046C0.406217 5.10046 0.336772 4.98657 0.308994 4.85879C0.281217 4.73101 0.28955 4.60601 0.333994 4.48379C0.378439 4.36157 0.445106 4.26157 0.533994 4.18379C0.622883 4.10601 0.745106 4.05601 0.900661 4.03379L4.13399 3.75046L5.38399 0.783789C5.43955 0.650456 5.52566 0.550456 5.64233 0.483789C5.759 0.417122 5.87844 0.383789 6.00066 0.383789C6.12288 0.383789 6.24233 0.417122 6.35899 0.483789C6.47566 0.550456 6.56177 0.650456 6.61733 0.783789L7.86733 3.75046L11.1007 4.03379C11.2562 4.05601 11.3784 4.10601 11.4673 4.18379C11.5562 4.26157 11.6229 4.36157 11.6673 4.48379C11.7118 4.60601 11.7201 4.73101 11.6923 4.85879C11.6646 4.98657 11.5951 5.10046 11.484 5.20046L9.03399 7.31712L9.76733 10.4671C9.80066 10.6116 9.78955 10.7421 9.734 10.8588C9.67844 10.9755 9.60066 11.0727 9.50066 11.1505C9.40066 11.2282 9.28399 11.2727 9.15066 11.2838C9.01733 11.2949 8.88955 11.2616 8.76733 11.1838L6.00066 9.51712Z" fill="#8642DB"/>
</svg>
