<svg width="10" height="10" viewBox="0 0 10 10" fill="none" xmlns="http://www.w3.org/2000/svg">
<path d="M5.00009 8.07663L2.57926 9.53496C2.47231 9.60302 2.36051 9.63218 2.24384 9.62246C2.12717 9.61274 2.02509 9.57385 1.93759 9.50579C1.85009 9.43774 1.78203 9.35267 1.73342 9.25059C1.68481 9.1485 1.67509 9.03427 1.70426 8.90788L2.34592 6.15163L0.202173 4.29954C0.104951 4.21204 0.0441874 4.11239 0.0198818 4.00059C-0.00442374 3.88878 0.00286792 3.77941 0.0417568 3.67246C0.0806457 3.56552 0.138979 3.47802 0.216757 3.40996C0.294535 3.34191 0.401479 3.29816 0.53759 3.27871L3.36676 3.03079L4.46051 0.434961C4.50912 0.318294 4.58447 0.230794 4.68655 0.172461C4.78863 0.114128 4.89315 0.0849609 5.00009 0.0849609C5.10704 0.0849609 5.21155 0.114128 5.31363 0.172461C5.41572 0.230794 5.49106 0.318294 5.53967 0.434961L6.63342 3.03079L9.46259 3.27871C9.5987 3.29816 9.70565 3.34191 9.78342 3.40996C9.8612 3.47802 9.91954 3.56552 9.95842 3.67246C9.99731 3.77941 10.0046 3.88878 9.9803 4.00059C9.95599 4.11239 9.89523 4.21204 9.79801 4.29954L7.65426 6.15163L8.29592 8.90788C8.32509 9.03427 8.31537 9.1485 8.26676 9.25059C8.21815 9.35267 8.15009 9.43774 8.06259 9.50579C7.97509 9.57385 7.87301 9.61274 7.75634 9.62246C7.63967 9.63218 7.52787 9.60302 7.42092 9.53496L5.00009 8.07663Z" fill="#8642DB"/>
</svg>
