<svg width="16" height="16" viewBox="0 0 16 16" fill="none" xmlns="http://www.w3.org/2000/svg">
<path d="M8.00066 11.5171L5.23399 13.1838C5.11177 13.2616 4.98399 13.2949 4.85066 13.2838C4.71733 13.2727 4.60066 13.2282 4.50066 13.1505C4.40066 13.0727 4.32288 12.9755 4.26733 12.8588C4.21177 12.7421 4.20066 12.6116 4.23399 12.4671L4.96733 9.31712L2.51733 7.20046C2.40622 7.10046 2.33677 6.98657 2.30899 6.85879C2.28122 6.73101 2.28955 6.60601 2.33399 6.48379C2.37844 6.36157 2.44511 6.26157 2.53399 6.18379C2.62288 6.10601 2.74511 6.05601 2.90066 6.03379L6.13399 5.75046L7.38399 2.78379C7.43955 2.65046 7.52566 2.55046 7.64233 2.48379C7.759 2.41712 7.87844 2.38379 8.00066 2.38379C8.12288 2.38379 8.24233 2.41712 8.35899 2.48379C8.47566 2.55046 8.56177 2.65046 8.61733 2.78379L9.86733 5.75046L13.1007 6.03379C13.2562 6.05601 13.3784 6.10601 13.4673 6.18379C13.5562 6.26157 13.6229 6.36157 13.6673 6.48379C13.7118 6.60601 13.7201 6.73101 13.6923 6.85879C13.6646 6.98657 13.5951 7.10046 13.484 7.20046L11.034 9.31712L11.7673 12.4671C11.8007 12.6116 11.7896 12.7421 11.734 12.8588C11.6784 12.9755 11.6007 13.0727 11.5007 13.1505C11.4007 13.2282 11.284 13.2727 11.1507 13.2838C11.0173 13.2949 10.8896 13.2616 10.7673 13.1838L8.00066 11.5171Z" fill="#8642DB"/>
</svg>
