<svg width="31" height="30" viewBox="0 0 31 30" fill="none" xmlns="http://www.w3.org/2000/svg">
<path d="M15.5 11.3115C15.6667 11.3115 15.8229 11.3376 15.9688 11.3896C16.1146 11.4417 16.25 11.5303 16.375 11.6553L22.125 17.4053C22.3542 17.6344 22.4688 17.9261 22.4688 18.2803C22.4688 18.6344 22.3542 18.9261 22.125 19.1553C21.8958 19.3844 21.6042 19.499 21.25 19.499C20.8958 19.499 20.6042 19.3844 20.375 19.1553L15.5 14.2803L10.625 19.1553C10.3958 19.3844 10.1042 19.499 9.75 19.499C9.39583 19.499 9.10417 19.3844 8.875 19.1553C8.64583 18.9261 8.53125 18.6344 8.53125 18.2803C8.53125 17.9261 8.64583 17.6344 8.875 17.4053L14.625 11.6553C14.75 11.5303 14.8854 11.4417 15.0313 11.3896C15.1771 11.3376 15.3333 11.3115 15.5 11.3115Z" fill="#CFDBEA"/>
</svg>
