<svg width="32" height="32" viewBox="0 0 32 32" fill="none" xmlns="http://www.w3.org/2000/svg">
<path d="M15.9878 26.2796C15.7023 26.2796 15.4156 26.2283 15.1276 26.1257C14.8395 26.0232 14.5861 25.8625 14.3673 25.6437L12.452 23.9027C10.0878 21.7471 7.97715 19.6296 6.11988 17.5501C4.26262 15.4706 3.33398 13.2429 3.33398 10.8668C3.33398 8.97454 3.97202 7.39036 5.24808 6.1143C6.52415 4.83823 8.10833 4.2002 10.0006 4.2002C11.0758 4.2002 12.1378 4.44806 13.1865 4.9438C14.2352 5.43953 15.1733 6.24466 16.0006 7.3592C16.828 6.24466 17.766 5.43953 18.8147 4.9438C19.8635 4.44806 20.9254 4.2002 22.0006 4.2002C23.8929 4.2002 25.4771 4.83823 26.7532 6.1143C28.0292 7.39036 28.6673 8.97454 28.6673 10.8668C28.6673 13.2685 27.7228 15.5211 25.8339 17.6245C23.945 19.7279 21.839 21.8275 19.516 23.9232L17.6211 25.6437C17.4023 25.8625 17.1468 26.0232 16.8545 26.1257C16.5621 26.2283 16.2733 26.2796 15.9878 26.2796ZM15.0417 9.3848C14.3203 8.28564 13.5609 7.48009 12.7635 6.96813C11.966 6.45615 11.0451 6.20016 10.0006 6.20016C8.66728 6.20016 7.55617 6.64461 6.66728 7.5335C5.7784 8.42239 5.33395 9.5335 5.33395 10.8668C5.33395 11.9369 5.67882 13.0557 6.36855 14.2232C7.05828 15.3907 7.92408 16.5514 8.96595 17.7052C10.0078 18.8591 11.1365 19.9864 12.3519 21.0873C13.5672 22.1881 14.6937 23.2112 15.7314 24.1566C15.8083 24.2249 15.898 24.2591 16.0006 24.2591C16.1032 24.2591 16.193 24.2249 16.2699 24.1566C17.3075 23.2112 18.434 22.1881 19.6494 21.0873C20.8648 19.9864 21.9934 18.8591 23.0353 17.7052C24.0772 16.5514 24.943 15.3907 25.6327 14.2232C26.3224 13.0557 26.6673 11.9369 26.6673 10.8668C26.6673 9.5335 26.2228 8.42239 25.334 7.5335C24.4451 6.64461 23.334 6.20016 22.0006 6.20016C20.9562 6.20016 20.0352 6.45615 19.2378 6.96813C18.4403 7.48009 17.6809 8.28564 16.9596 9.3848C16.8468 9.55573 16.7049 9.68394 16.534 9.76943C16.363 9.8549 16.1852 9.89763 16.0006 9.89763C15.816 9.89763 15.6382 9.8549 15.4673 9.76943C15.2964 9.68394 15.1545 9.55573 15.0417 9.3848Z" fill="#9FACBD"/>
</svg>
